<svg xmlns="http://www.w3.org/2000/svg" width="32" height="32" viewBox="0 0 32 32" fill="none">
  <path d="M28.3334 16H11.8601M6.04541 16H3.66675M6.04541 16C6.04541 15.2291 6.35165 14.4898 6.89676 13.9447C7.44186 13.3996 8.18119 13.0933 8.95208 13.0933C9.72298 13.0933 10.4623 13.3996 11.0074 13.9447C11.5525 14.4898 11.8587 15.2291 11.8587 16C11.8587 16.7709 11.5525 17.5102 11.0074 18.0553C10.4623 18.6004 9.72298 18.9067 8.95208 18.9067C8.18119 18.9067 7.44186 18.6004 6.89676 18.0553C6.35165 17.5102 6.04541 16.7709 6.04541 16ZM28.3334 24.8093H20.6694M20.6694 24.8093C20.6694 25.5804 20.3624 26.3206 19.8172 26.8658C19.272 27.411 18.5325 27.7173 17.7614 27.7173C16.9905 27.7173 16.2512 27.4098 15.7061 26.8647C15.161 26.3195 14.8547 25.5802 14.8547 24.8093M20.6694 24.8093C20.6694 24.0383 20.3624 23.2994 19.8172 22.7542C19.272 22.209 18.5325 21.9027 17.7614 21.9027C16.9905 21.9027 16.2512 22.2089 15.7061 22.754C15.161 23.2991 14.8547 24.0384 14.8547 24.8093M14.8547 24.8093H3.66675M28.3334 7.19066H24.1934M18.3787 7.19066H3.66675M18.3787 7.19066C18.3787 6.41977 18.685 5.68045 19.2301 5.13534C19.7752 4.59023 20.5145 4.284 21.2854 4.284C21.6671 4.284 22.0451 4.35918 22.3977 4.50525C22.7504 4.65133 23.0708 4.86543 23.3407 5.13534C23.6106 5.40525 23.8248 5.72568 23.9708 6.07833C24.1169 6.43098 24.1921 6.80895 24.1921 7.19066C24.1921 7.57237 24.1169 7.95034 23.9708 8.303C23.8248 8.65565 23.6106 8.97608 23.3407 9.24599C23.0708 9.5159 22.7504 9.73 22.3977 9.87607C22.0451 10.0221 21.6671 10.0973 21.2854 10.0973C20.5145 10.0973 19.7752 9.79109 19.2301 9.24599C18.685 8.70088 18.3787 7.96156 18.3787 7.19066Z" stroke="black" stroke-width="1.5" stroke-miterlimit="10" stroke-linecap="round"/>
</svg>