<?xml version="1.0" encoding="UTF-8"?>
<svg xmlns="http://www.w3.org/2000/svg" xmlns:xlink="http://www.w3.org/1999/xlink" width="848.01pt" height="1040pt" viewBox="0 0 848.01 1040" version="1.1">
<g id="surface1">
<path style=" stroke:none;fill-rule:nonzero;fill:rgb(0%,0%,0%);fill-opacity:1;" d="M 842.792969 197.238281 C 842.761719 197.238281 842.730469 197.238281 842.695313 197.238281 C 708.988281 185.496094 536.75 3.828125 533.21875 0.0898438 C 533.222656 0.0585938 533.222656 0.03125 533.222656 0 L 315.011719 0 C 315.011719 0.03125 315.011719 0.0703125 315.015625 0.101563 L 314.875 0 C 314.875 0 140.417969 185.367188 5.324219 197.238281 C 3.539063 197.234375 1.773438 197.152344 0 197.101563 C 13.800781 593.304688 185.996094 922.851563 424.125 1040 C 658.914063 927.511719 832.605469 595.785156 848.011719 197.109375 C 846.273438 197.15625 844.542969 197.238281 842.792969 197.238281 "/>
<path style=" stroke:none;fill-rule:nonzero;fill:rgb(92.498779%,19.198608%,18.798828%);fill-opacity:1;" d="M 304.554688 852.5625 C 306.148438 854.269531 307.75 855.941406 309.351563 857.617188 L 309.351563 118.992188 C 293.644531 133.335938 274.539063 149.933594 253.289063 166.644531 C 189.644531 216.699219 132.054688 248.285156 81.582031 260.910156 L 81.582031 270.371094 C 92.675781 423.777344 130.609375 567.605469 192.199219 688.667969 C 224.425781 752.011719 262.226563 807.15625 304.554688 852.5625 "/>
<path style=" stroke:none;fill-rule:nonzero;fill:rgb(2.398682%,1.998901%,1.599121%);fill-opacity:1;" d="M 655.808594 688.667969 C 717.398438 567.605469 755.335938 423.773438 766.429688 270.367188 L 766.429688 260.914063 C 715.953125 248.285156 658.367188 216.695313 594.71875 166.644531 C 573.46875 149.933594 554.367188 133.335938 538.660156 118.992188 L 538.660156 857.617188 C 540.261719 855.941406 541.863281 854.269531 543.453125 852.5625 C 585.78125 807.15625 623.582031 752.011719 655.808594 688.667969 "/>
<path style=" stroke:none;fill-rule:nonzero;fill:rgb(100%,100%,100%);fill-opacity:1;" d="M 424.003906 946.972656 C 463.695313 925.527344 501.648438 896.089844 537.121094 859.238281 L 537.121094 117.589844 C 524.289063 105.828125 513.832031 95.675781 506.523438 88.394531 L 341.488281 88.394531 C 333.890625 95.960938 322.878906 106.640625 309.351563 118.992188 L 309.351563 857.617188 C 345.265625 895.21875 383.738281 925.214844 424.003906 946.972656 "/>
<path style=" stroke:none;fill-rule:nonzero;fill:rgb(93.699646%,73.699951%,14.498901%);fill-opacity:1;" d="M 655.808594 688.667969 C 623.582031 752.011719 585.78125 807.15625 543.453125 852.5625 C 506.179688 892.554688 466.066406 924.246094 424.003906 946.972656 C 381.945313 924.246094 341.832031 892.554688 304.558594 852.5625 C 262.230469 807.15625 224.425781 752.011719 192.199219 688.667969 C 129.367188 565.164063 91.136719 417.972656 80.921875 261.082031 C 131.554688 248.566406 189.367188 216.914063 253.292969 166.644531 C 292.839844 135.542969 325.074219 104.746094 341.488281 88.394531 L 506.523438 88.394531 C 522.9375 104.746094 555.167969 135.542969 594.71875 166.644531 C 658.644531 216.914063 716.453125 248.566406 767.085938 261.082031 C 756.875 417.972656 718.640625 565.164063 655.808594 688.667969 M 802.539063 228.261719 C 802.511719 228.261719 802.484375 228.261719 802.453125 228.261719 C 681.597656 217.648438 525.914063 53.441406 522.722656 50.0625 C 522.722656 50.035156 522.722656 50.007813 522.726563 49.980469 L 325.285156 49.980469 C 325.285156 50.007813 325.285156 50.035156 325.289063 50.0625 C 322.097656 53.441406 166.414063 217.648438 45.554688 228.261719 C 45.527344 228.261719 45.5 228.261719 45.46875 228.261719 C 43.890625 228.261719 42.324219 228.1875 40.753906 228.144531 C 54.675781 588.5 211.675781 888.34375 423.898438 990.019531 C 423.933594 990 423.96875 989.980469 424.003906 989.964844 C 424.039063 989.980469 424.078125 990 424.113281 990.019531 C 636.335938 888.34375 793.332031 588.5 807.257813 228.144531 C 805.6875 228.1875 804.121094 228.261719 802.539063 228.261719 "/>
<path style=" stroke:none;fill-rule:nonzero;fill:rgb(10.598755%,49.398804%,65.499878%);fill-opacity:1;" d="M 492.023438 136.089844 C 492.023438 136.089844 498.78125 170.085938 457.121094 250.75 L 379.398438 391.066406 C 379.398438 391.066406 388.835938 393.296875 395.148438 398.445313 L 470.871094 261.582031 C 470.871094 261.582031 524.425781 162.222656 492.023438 136.089844 "/>
<path style=" stroke:none;fill-rule:nonzero;fill:rgb(10.598755%,49.398804%,65.499878%);fill-opacity:1;" d="M 386.558594 396.613281 C 386.558594 396.613281 381.050781 393.796875 377.359375 393.625 C 377.359375 393.625 371.777344 391.058594 374.941406 386.21875 C 374.941406 386.21875 378.144531 383.046875 373.121094 379.550781 C 373.121094 379.550781 368.140625 377.726563 364.296875 386.105469 C 364.296875 386.105469 360.007813 393.65625 372.117188 399.351563 C 372.117188 399.351563 373.277344 394.714844 385.929688 401.324219 C 385.929688 401.324219 397.175781 407.398438 393.9375 410.09375 C 393.9375 410.09375 413.792969 420.175781 408.738281 439.140625 C 408.738281 439.140625 402.339844 473.21875 378.046875 469.707031 L 367.765625 467.074219 C 367.765625 467.074219 365.683594 469.019531 366.875 472.625 C 366.875 472.625 383.21875 481.949219 398.355469 473.691406 C 398.355469 473.691406 415.722656 465.394531 417.859375 439.425781 C 417.859375 439.425781 423.117188 413.359375 386.558594 396.613281 "/>
<path style=" stroke:none;fill-rule:nonzero;fill:rgb(10.598755%,49.398804%,65.499878%);fill-opacity:1;" d="M 365.246094 482.800781 C 365.246094 482.800781 367.175781 478.820313 366.785156 476.488281 C 366.785156 476.488281 359.46875 463.398438 359.691406 457.777344 C 359.691406 457.777344 359.320313 452.253906 355.28125 451.414063 C 355.28125 451.414063 353.253906 450.789063 351.757813 455.179688 C 351.757813 455.179688 348.328125 467.570313 347.664063 479.570313 C 347.664063 479.570313 355.125 483.683594 365.246094 482.800781 "/>
<path style=" stroke:none;fill-rule:nonzero;fill:rgb(10.598755%,49.398804%,65.499878%);fill-opacity:1;" d="M 367.222656 481.054688 C 367.203125 482.898438 366.269531 483.53125 366.269531 483.53125 C 356.832031 486.527344 345.746094 480.222656 345.746094 480.222656 C 344.742188 482.871094 348.363281 484.917969 348.363281 484.917969 C 349.515625 489.253906 354.28125 490.269531 354.28125 490.269531 C 361.691406 491.730469 362.671875 487.6875 362.671875 487.6875 C 371.832031 485.261719 367.222656 481.054688 367.222656 481.054688 "/>
<path style=" stroke:none;fill-rule:nonzero;fill:rgb(10.598755%,49.398804%,65.499878%);fill-opacity:1;" d="M 352.058594 450.925781 C 353.207031 449.617188 354.9375 449.691406 354.9375 449.691406 C 359.855469 449.921875 361.117188 456.601563 361.117188 456.601563 C 361.226563 464.308594 365.132813 469.589844 365.132813 469.589844 C 373.839844 429.285156 391.675781 408.742188 391.675781 408.742188 C 385.460938 400.160156 375.222656 399.617188 375.222656 399.617188 C 356.109375 419.214844 351.9375 450.425781 351.9375 450.425781 C 351.9375 450.425781 350.914063 452.234375 352.058594 450.925781 "/>
<path style=" stroke:none;fill-rule:nonzero;fill:rgb(10.598755%,49.398804%,65.499878%);fill-opacity:1;" d="M 355.984375 136.089844 C 355.984375 136.089844 349.226563 170.085938 390.886719 250.75 L 468.609375 391.066406 C 468.609375 391.066406 459.175781 393.296875 452.859375 398.445313 L 377.140625 261.582031 C 377.140625 261.582031 323.585938 162.222656 355.984375 136.089844 "/>
<path style=" stroke:none;fill-rule:nonzero;fill:rgb(10.598755%,49.398804%,65.499878%);fill-opacity:1;" d="M 461.449219 396.613281 C 461.449219 396.613281 466.960938 393.796875 470.648438 393.625 C 470.648438 393.625 476.234375 391.058594 473.070313 386.21875 C 473.070313 386.21875 469.867188 383.046875 474.886719 379.550781 C 474.886719 379.550781 479.867188 377.726563 483.714844 386.105469 C 483.714844 386.105469 488 393.65625 475.890625 399.351563 C 475.890625 399.351563 474.730469 394.714844 462.078125 401.324219 C 462.078125 401.324219 450.832031 407.398438 454.070313 410.09375 C 454.070313 410.09375 434.21875 420.175781 439.269531 439.140625 C 439.269531 439.140625 445.671875 473.21875 469.964844 469.707031 L 480.246094 467.074219 C 480.246094 467.074219 482.328125 469.019531 481.132813 472.625 C 481.132813 472.625 464.789063 481.949219 449.652344 473.691406 C 449.652344 473.691406 432.285156 465.394531 430.152344 439.425781 C 430.152344 439.425781 424.890625 413.359375 461.449219 396.613281 "/>
<path style=" stroke:none;fill-rule:nonzero;fill:rgb(10.598755%,49.398804%,65.499878%);fill-opacity:1;" d="M 482.761719 482.800781 C 482.761719 482.800781 480.835938 478.820313 481.226563 476.488281 C 481.226563 476.488281 488.539063 463.398438 488.320313 457.777344 C 488.320313 457.777344 488.691406 452.253906 492.726563 451.414063 C 492.726563 451.414063 494.757813 450.789063 496.253906 455.179688 C 496.253906 455.179688 499.679688 467.570313 500.347656 479.570313 C 500.347656 479.570313 492.886719 483.683594 482.761719 482.800781 "/>
<path style=" stroke:none;fill-rule:nonzero;fill:rgb(10.598755%,49.398804%,65.499878%);fill-opacity:1;" d="M 480.785156 481.054688 C 480.804688 482.898438 481.742188 483.53125 481.742188 483.53125 C 491.179688 486.527344 502.261719 480.222656 502.261719 480.222656 C 503.265625 482.871094 499.648438 484.917969 499.648438 484.917969 C 498.492188 489.253906 493.726563 490.269531 493.726563 490.269531 C 486.320313 491.730469 485.339844 487.6875 485.339844 487.6875 C 476.175781 485.261719 480.785156 481.054688 480.785156 481.054688 "/>
<path style=" stroke:none;fill-rule:nonzero;fill:rgb(10.598755%,49.398804%,65.499878%);fill-opacity:1;" d="M 495.949219 450.925781 C 494.804688 449.617188 493.074219 449.691406 493.074219 449.691406 C 488.152344 449.921875 486.890625 456.601563 486.890625 456.601563 C 486.785156 464.308594 482.878906 469.589844 482.878906 469.589844 C 474.171875 429.285156 456.335938 408.742188 456.335938 408.742188 C 462.550781 400.160156 472.785156 399.617188 472.785156 399.617188 C 491.898438 419.214844 496.074219 450.425781 496.074219 450.425781 C 496.074219 450.425781 497.097656 452.234375 495.949219 450.925781 "/>
<path style=" stroke:none;fill-rule:nonzero;fill:rgb(10.598755%,49.398804%,65.499878%);fill-opacity:1;" d="M 424.003906 642.660156 L 309.351563 578.027344 L 309.351563 650.183594 L 424.003906 714.816406 L 537.121094 651.050781 L 537.121094 578.894531 "/>
<path style=" stroke:none;fill-rule:nonzero;fill:rgb(0%,0%,0%);fill-opacity:1;" d="M 311.097656 649.164063 L 424.003906 712.8125 L 535.375 650.03125 L 535.375 581.886719 L 424.003906 644.664063 L 423.148438 644.183594 L 311.097656 581.015625 Z M 424.003906 716.824219 L 307.605469 651.203125 L 307.605469 575.039063 L 424.003906 640.65625 L 538.867188 575.90625 L 538.867188 652.070313 "/>
<path style=" stroke:none;fill-rule:nonzero;fill:rgb(10.598755%,49.398804%,65.499878%);fill-opacity:1;" d="M 424.003906 742.164063 L 309.351563 677.53125 L 309.351563 749.6875 L 424.003906 814.320313 L 537.121094 750.554688 L 537.121094 678.398438 "/>
<path style=" stroke:none;fill-rule:nonzero;fill:rgb(0%,0%,0%);fill-opacity:1;" d="M 311.097656 748.664063 L 424.003906 812.316406 L 535.375 749.535156 L 535.375 681.386719 L 424.003906 744.167969 L 423.148438 743.6875 L 311.097656 680.519531 Z M 424.003906 816.324219 L 423.148438 815.84375 L 307.605469 750.707031 L 307.605469 674.542969 L 424.003906 740.160156 L 538.867188 675.410156 L 538.867188 751.574219 "/>
</g>
</svg>
